<svg xmlns="http://www.w3.org/2000/svg" viewBox="0 0 512 512"><defs><style>.cls-1{fill:#3586cb;}.cls-2{fill:#3e436d;}.cls-3{fill:#5c6493;}.cls-4{fill:#27273d;}.cls-5{fill:#32314b;}.cls-6{fill:#4f4f74;}.cls-7{fill:#fff;}.cls-8{fill:#fc715a;}.cls-9{fill:#fca89d;}</style></defs><title>Cinema</title><g id="BULINE"><circle class="cls-1" cx="256" cy="256.05" r="256"/></g><g id="Icons"><rect class="cls-2" x="87.25" y="257.25" width="271.12" height="148.78" rx="14.32"/><rect class="cls-3" x="113.26" y="271.53" width="219.08" height="120.22" rx="11.57"/><rect class="cls-4" x="126.33" y="164.86" width="193.06" height="92.39"/><circle class="cls-5" cx="130.24" cy="164.86" r="92.48"/><circle class="cls-2" cx="130.24" cy="164.86" r="82.63"/><path class="cls-6" d="M95.62,179.47c7.11,19.1,49.69,86.08,68.8,79s7.49-85.64.37-104.74a36.91,36.91,0,0,0-69.17,25.77Z"/><circle class="cls-5" cx="130.24" cy="164.86" r="29.46"/><circle class="cls-7" cx="130.24" cy="164.86" r="15.67"/><circle class="cls-5" cx="315.37" cy="164.86" r="92.48"/><circle class="cls-2" cx="315.37" cy="164.86" r="82.63"/><circle class="cls-5" cx="315.37" cy="164.86" r="29.46"/><circle class="cls-7" cx="315.37" cy="164.86" r="15.67"/><circle class="cls-5" cx="283.62" cy="330.05" r="27.48"/><circle class="cls-2" cx="283.62" cy="330.05" r="14.62"/><circle class="cls-5" cx="212.88" cy="330.05" r="27.48"/><circle class="cls-2" cx="212.88" cy="330.05" r="14.62"/><circle class="cls-5" cx="159.7" cy="243.06" r="19.2"/><circle class="cls-7" cx="159.7" cy="243.06" r="10.22"/><rect class="cls-4" x="358.37" y="304.39" width="30.7" height="54.49"/><path class="cls-5" d="M389.07,304.39v54.49c2.6,2.69,53.71,23.81,74.92,32.5a6.6,6.6,0,0,0,9.11-6.1V278a6.6,6.6,0,0,0-9.11-6.11C442.78,280.58,391.67,301.7,389.07,304.39Z"/><path class="cls-5" d="M80.2,316v-23.2c-1.1-1.14-22.87-10.13-31.9-13.84a2.82,2.82,0,0,0-3.88,2.6v45.68a2.81,2.81,0,0,0,3.88,2.6C57.33,326.13,79.1,317.14,80.2,316Z"/><path class="cls-4" d="M473.09,368.2v17.07a6.59,6.59,0,0,1-9.09,6.11c-21.22-8.69-72.33-29.81-74.93-32.5V341.81c2.6,2.69,53.71,23.81,74.93,32.51A6.6,6.6,0,0,0,473.09,368.2Z"/><circle class="cls-2" cx="441.94" cy="294.67" r="8.35"/><circle class="cls-2" cx="425.68" cy="300.85" r="5.92"/><path class="cls-8" d="M80.65,320.84l81.4,4a12.2,12.2,0,0,0,12.8-12.19V297.77a12.2,12.2,0,0,0-12.2-12.21H81a7.53,7.53,0,0,0-7.53,7.53v20.23A7.53,7.53,0,0,0,80.65,320.84Z"/><circle class="cls-9" cx="149.49" cy="305.18" r="12.99"/><circle class="cls-9" cx="107.45" cy="305.18" r="9.99"/></g></svg>