<!DOCTYPE svg PUBLIC "-//W3C//DTD SVG 1.1//EN" "http://www.w3.org/Graphics/SVG/1.1/DTD/svg11.dtd">
<!-- Uploaded to: SVG Repo, www.svgrepo.com, Transformed by: SVG Repo Mixer Tools -->
<svg fill="#00e054" version="1.1" id="Capa_1" xmlns="http://www.w3.org/2000/svg" xmlns:xlink="http://www.w3.org/1999/xlink" width="800px" height="800px" viewBox="0 0 300.931 300.931" xml:space="preserve" stroke="#00e054">
<g id="SVGRepo_bgCarrier" stroke-width="0"/>
<g id="SVGRepo_tracerCarrier" stroke-linecap="round" stroke-linejoin="round"/>
<g id="SVGRepo_iconCarrier"> <g> <g> <path d="M235.883,159.445h-22.354l26.07-26.068c2.053-2.05,2.053-5.383,0-7.433c-2.054-2.054-5.38-2.054-7.434,0l-33.506,33.505 h-7.457v-29.787c0-2.905-2.354-5.256-5.257-5.256h-68.333c-2.905,0-5.256,2.351-5.256,5.256v29.787h-10.089l-33.503-33.505 c-2.053-2.054-5.379-2.054-7.433,0c-2.053,2.05-2.053,5.383,0,7.433l26.066,26.068h-22.35c-2.905,0-5.256,2.354-5.256,5.257 v103.376c0,2.902,2.351,5.257,5.256,5.257h19.726l-14.9,14.899c-2.053,2.054-2.053,5.38,0,7.434c1.027,1.026,2.375,1.54,3.72,1.54 c1.345,0,2.689-0.514,3.716-1.54l22.333-22.333h101.652l26.06,26.056c1.026,1.027,2.372,1.54,3.717,1.54 c1.349,0,2.693-0.513,3.72-1.54c2.053-2.053,2.053-5.379,0-7.433l-18.623-18.62h19.715c2.902,0,5.256-2.354,5.256-5.256V164.705 C241.139,161.796,238.785,159.445,235.883,159.445z M117.613,169.958c2.905,0,5.256-2.354,5.256-5.256v-29.787h57.821v29.787 c0,2.901,2.354,5.256,5.256,5.256h2.204l-37.685,37.682l-37.685-37.682H117.613z M70.305,262.822v-92.864h27.61l45.118,45.118 l-47.746,47.746H70.305z M110.152,262.822l40.313-40.313l40.312,40.313H110.152z M230.626,262.822h-24.981l-47.746-47.746 l45.118-45.118h27.609V262.822z"/> <path d="M115.861,117.394h69.209c2.902,0,5.257-2.351,5.257-5.256V5.256c0-2.905-2.354-5.256-5.257-5.256h-69.209 c-2.906,0-5.256,2.351-5.256,5.256v106.881C110.604,115.039,112.955,117.394,115.861,117.394z M121.117,10.513h58.697v96.368 h-58.697V10.513z"/> <path d="M171.491,14.017H129.44c-2.906,0-5.256,2.351-5.256,5.256V44.68c0,2.905,2.351,5.256,5.256,5.256h42.051 c2.902,0,5.257-2.351,5.257-5.256V19.273C176.748,16.368,174.394,14.017,171.491,14.017z M166.234,39.423h-31.538V24.53h31.538 V39.423z"/> </g> </g> </g>
</svg>